<svg width="744" height="383" viewBox="0 0 744 383" fill="none" xmlns="http://www.w3.org/2000/svg">
<path fill-rule="evenodd" clip-rule="evenodd" d="M653.004 15.8297C675.399 0.0579729 698.751 -4.72359 718.779 5.10906C734.555 12.8544 745.685 29.4943 743.79 49.8031C741.947 69.5419 728.3 88.6059 704.297 104.87L684.596 75.9058C703.955 62.7878 708.37 51.86 708.865 46.5557C709.307 41.8215 707.052 38.3664 703.297 36.5228C698.896 34.3624 689.495 32.9766 673.226 44.4341C656.831 55.9799 636.078 79.0791 612.658 119.682C605.191 132.627 599.163 152.631 597.867 173.561C596.561 194.644 600.205 213.934 609.034 227.057C618.744 241.485 627.087 243.076 630.168 242.828C632.883 242.61 637.389 240.515 639.593 232.292C641.277 226.011 639.963 219.032 634.14 205.169C628.728 192.286 619.717 174.155 613.651 151.485L643.116 134.711C660.892 152.797 692.466 150.27 707.148 128.098L736.41 147.401C719.286 173.263 689.736 184.738 661.891 181.021C663.447 184.561 664.993 188.072 666.488 191.633C672.477 205.89 678.476 222.693 673.478 241.339C668.301 260.655 653.56 276.071 632.982 277.724C612.77 279.348 593.773 267.168 579.916 246.575C565.18 224.675 561.292 196.674 562.858 171.401C563.712 157.613 566.234 143.828 570.051 131.172C567.951 129.716 565.986 128.655 564.171 127.89C562.014 126.981 559.863 126.4 557.672 126.119C559.752 135.146 561.074 145.513 561.207 157.395C561.802 210.447 523.137 262.79 469.917 262.737C461.341 262.728 444.928 263.04 430.049 255.064C413.583 246.238 402.289 229.462 398.631 203.066C393.575 245.784 364.666 284.781 321.567 290.392C310.839 291.789 293.802 292.266 276.86 284.788C271.584 282.459 266.503 279.44 261.751 275.644C252.137 300.01 233.653 318.089 207.69 318.874C184.216 319.583 161.851 305.567 142.9 280.208C145.129 286.487 146.947 292.897 148.316 299.155C150.592 309.561 151.822 320.375 151.441 330.5C151.069 340.364 149.114 351.048 143.712 359.996C134.626 375.048 118.728 385.953 99.4475 382.285C81.6153 378.892 67.6217 364.088 58.0023 344.388C52.4524 333.022 48.7772 316.671 46.553 299.159C45.2125 288.605 44.3337 277.076 43.9805 265.068C43.324 266.15 42.6786 267.271 42.0484 268.424C39.3032 273.448 37.1516 278.48 35.6772 282.312C34.9481 284.207 34.4034 285.758 34.0514 286.803C33.8757 287.324 33.7494 287.716 33.6726 287.958C33.6343 288.079 33.6083 288.162 33.5951 288.204L33.5917 288.216C33.5923 288.212 33.5091 288.183 16.7953 283.178C-0.00276184 278.148 -0.00123912 278.145 2.19098e-05 278.14C2.19098e-05 278.14 0.0015599 278.135 0.00250408 278.131C0.00445591 278.125 0.00658362 278.117 0.0089577 278.11C0.0137437 278.094 0.0193374 278.075 0.0258364 278.054C0.0388614 278.011 0.0555909 277.957 0.0754797 277.893C0.115331 277.764 0.168982 277.591 0.236324 277.379C0.370997 276.955 0.560747 276.369 0.805236 275.644C1.29343 274.195 2.00435 272.175 2.93295 269.762C4.77415 264.977 7.55029 258.441 11.2542 251.663C14.9053 244.981 19.7929 237.44 26.0479 231.083C30.9213 226.13 37.3238 221.196 45.2727 218.477C48.3255 183.047 56.5037 146.43 73.1261 122C91.4773 95.0298 111.299 78.9618 131.082 72.0941C151.131 65.1339 170.052 68.096 184.05 77.2238C195.163 84.4708 207.293 95.1506 214.228 113.496C220.984 131.366 221.981 154.318 215.813 184.701C209.267 217.226 190.164 240.65 165.255 250.999C182.069 277.497 197.897 284.145 206.627 283.881C215.651 283.608 229.123 274.716 233.331 246.805L235.94 229.496L246.461 231.075L268.832 224.222C274.286 241.952 283.196 249.306 291.046 252.771C299.724 256.601 309.458 256.663 317.03 255.677C344.92 252.047 369.21 218.224 363.599 179.025C362.823 173.599 361.8 168.716 360.608 164.321C352.779 169.847 345.064 176.32 336.966 183.106C325.984 192.309 313.209 203.104 300.075 208.985C293.155 212.084 285.224 214.277 276.591 213.86C267.736 213.431 259.407 210.314 251.822 204.748C244.12 199.096 237.858 190.231 233.817 181.283C229.739 172.252 226.85 160.758 228.547 149.195C234.544 108.357 266.882 94.0097 277.878 90.0017C298.246 82.5774 315.73 81.9843 330.512 85.5607C345.132 89.0983 355.719 96.3801 362.888 102.469C367.169 106.105 371.958 110.902 376.645 117.214C380.986 115.923 385.489 114.93 390.15 114.322C395.985 94.6642 409.078 81.3181 421.236 72.8527C433.419 64.3704 445.876 59.9071 452.767 58.3729C473.931 53.6613 491.345 55.3473 505.533 60.8161C519.567 66.2253 529.113 74.8227 535.425 81.7921C537.956 84.5858 540.644 87.9291 543.296 91.9023C543.428 91.8793 543.56 91.8552 543.691 91.8329C554.686 89.9765 566.251 90.764 577.818 95.6397C580.002 96.5603 582.147 97.6101 584.255 98.7875C608.197 57.9774 631.335 31.0901 653.004 15.8297ZM78.8808 252.98C78.8769 267.951 79.7635 282.262 81.3505 294.757C83.4322 311.147 86.5391 322.919 89.5332 329.051C97.0014 344.346 103.929 347.498 106.016 347.896C106.655 348.017 109.674 348.545 113.668 341.929C114.806 340.043 116.133 335.995 116.39 329.184C116.637 322.633 115.842 314.827 114.048 306.622C110.342 289.686 103.149 274.375 96.1502 266.719C89.0625 258.964 83.4566 255.037 78.8808 252.98ZM164.864 106.531C160.375 103.604 152.858 101.6 142.605 105.159C132.085 108.811 117.738 118.749 102.144 141.668C90.9028 158.189 83.7379 185.981 80.6441 216.931C82.826 217.39 85.0302 217.977 87.2551 218.712C99.6949 222.823 110.907 230.919 122.063 243.124C122.708 243.83 123.344 244.557 123.97 245.304L137.853 221.832C156.765 220.745 175.522 207.135 181.425 177.806L181.431 177.776C186.854 151.079 185.011 135.38 181.411 125.855C177.987 116.801 172.238 111.339 164.864 106.531ZM524.256 137.649C519.646 140.617 514.782 144.072 509.614 147.933C495.664 158.355 478.41 172.725 462.183 180.117C453.6 184.027 443.534 186.912 432.74 185.725C421.471 184.487 411.524 179.049 403.167 170.108C400.355 167.1 397.775 163.508 395.567 159.496C396.652 164.048 397.583 168.901 398.324 174.074C399.696 183.663 399.766 193.398 398.645 202.949L433.365 198.19C435.87 216.389 442.311 221.899 446.644 224.222C452.586 227.407 460.074 227.719 469.952 227.729C498.078 227.756 526.578 197.382 526.134 157.787C526.048 150.126 525.347 143.453 524.256 137.649ZM322.248 119.584C314.916 117.81 304.506 117.565 289.91 122.885C282.332 125.648 266.343 133.225 263.253 154.272C262.822 157.201 263.487 161.787 265.795 166.899C268.141 172.095 271.099 175.441 272.6 176.543C275.159 178.421 276.95 178.827 278.289 178.892C279.851 178.967 282.192 178.623 285.717 177.045C293.475 173.57 302.295 166.448 314.411 156.295C323.099 149.014 333.173 140.476 344.282 133.048C342.766 131.441 341.362 130.155 340.156 129.131C335.487 125.165 329.741 121.397 322.248 119.584ZM492.897 93.474C485.969 90.8037 475.89 89.2153 461.111 92.3869L460.403 92.5415C457.645 93.1556 449.473 95.8776 441.305 101.565C433.28 107.153 426.492 114.709 423.657 124.689C422.679 128.134 422.732 132.333 423.897 136.638C425.083 141.025 427.126 144.42 428.814 146.226C432.325 149.982 434.852 150.737 436.58 150.928C438.784 151.17 442.24 150.72 447.619 148.269C459.317 142.941 471.752 132.49 488.594 119.907C494.965 115.147 502.02 110.057 509.604 105.493C509.537 105.418 509.472 105.342 509.406 105.269C505.294 100.73 500.09 96.2462 492.897 93.474Z" fill="white"/>
</svg>
